PathFileType	4	(X/Y/Z)	D:\telocate\uwb04-Unnamed.trc
DataRate	CameraRate	NumFrames	NumMarkers	Units	OrigDataRate	OrigDataStartFrame	OrigNumFrames
100.00	100.00	     201	0	mm	100.00	8765	     10016
Frame#	Time	
		

8765	87.640	1482.03674	359.12531	1166.03320	
8766	87.650	1478.02698	362.08704	1166.44678	
8767	87.660	1475.10815	364.54880	1166.59790	
8768	87.670	1469.59863	367.18103	1166.52295	
8769	87.680	1466.72705	370.15698	1166.40479	
8770	87.690	1465.07056	373.37323	1166.81677	
8771	87.700	1461.50269	375.99057	1166.50391	
8772	87.710	1455.79834	379.07266	1166.20361	
8773	87.720	1452.81262	382.11719	1166.73755	
8774	87.730	1448.87671	384.71808	1166.23157	
8775	87.740	1443.95410	387.16391	1166.57385	
8776	87.750	1440.28174	390.30356	1166.56482	
8777	87.760	1436.26538	392.16730	1166.70349	
8778	87.770	1433.27161	395.16000	1166.47119	
8779	87.780	1430.68945	398.01633	1167.00183	
8780	87.790	1427.19812	400.49579	1166.89648	
8781	87.800	1423.42969	403.43570	1167.32385	
8782	87.810	1419.50537	405.36572	1167.31348	
8783	87.820	1415.94287	407.69095	1167.74011	
8784	87.830	1412.43335	410.49258	1167.52856	
8785	87.840	1409.42578	412.83661	1167.93567	
8786	87.850	1404.56201	415.20801	1168.64246	
8787	87.860	1401.28638	417.75732	1168.55017	
8788	87.870	1399.86768	420.59650	1169.15723	
8789	87.880	1396.94751	423.33432	1168.86621	
8790	87.890	1391.48645	425.67755	1169.54443	
8791	87.900	1389.01965	428.62631	1168.96411	
8792	87.910	1384.28552	430.99997	1169.37598	
8793	87.920	1379.84314	434.53079	1168.68433	
8794	87.930	1375.00415	439.02155	1168.02209	
8795	87.940	1370.68872	442.99435	1168.07788	
8796	87.950	1367.99451	446.59375	1167.39038	
8797	87.960	1364.51416	449.72589	1167.57910	
8798	87.970	1361.29041	452.92398	1166.95605	
8799	87.980	1357.40759	455.09082	1166.55273	
8800	87.990	1353.75732	458.16278	1166.44055	
8801	88.000	1350.11584	461.28680	1166.42041	
8802	88.010	1346.74280	465.01343	1166.22705	
8803	88.020	1341.51721	469.08401	1165.53198	
8804	88.030	1336.07751	474.05417	1165.19849	
8805	88.040	1331.67432	478.16794	1165.24963	
8806	88.050	1329.01233	481.39740	1164.56836	
8807	88.060	1325.62744	484.74200	1164.62781	
8808	88.070	1322.48401	488.66806	1164.16724	
8809	88.080	1317.03857	491.05273	1163.96375	
8810	88.090	1313.72046	494.25192	1163.60950	
8811	88.100	1309.59534	498.09055	1162.62280	
8812	88.110	1305.69641	503.82019	1162.52795	
8813	88.120	1302.25452	509.12146	1161.60242	
8814	88.130	1297.56628	513.74622	1161.20496	
8815	88.140	1292.89722	517.76331	1160.02954	
8816	88.150	1288.96240	522.14368	1159.67871	
8817	88.160	1284.75586	526.14752	1159.25024	
8818	88.170	1281.04614	529.95868	1158.47595	
8819	88.180	1275.52588	534.27924	1158.67310	
8820	88.190	1273.15564	539.89325	1157.36523	
8821	88.200	1269.17285	544.88312	1157.18103	
8822	88.210	1263.16370	549.53949	1156.14868	
8823	88.220	1259.43738	554.38757	1155.91528	
8824	88.230	1254.88391	558.75275	1155.77002	
8825	88.240	1250.31628	563.31055	1155.45459	
8826	88.250	1245.72180	567.61414	1154.95337	
8827	88.260	1241.63208	572.72198	1154.11389	
8828	88.270	1238.31641	578.30316	1153.52979	
8829	88.280	1234.29871	583.80682	1152.81262	
8830	88.290	1230.75635	589.31189	1152.52698	
8831	88.300	1226.35950	594.29370	1152.60107	
8832	88.310	1222.65906	599.11365	1151.81274	
8833	88.320	1219.50415	603.71503	1151.80481	
8834	88.330	1215.57813	608.64545	1151.59204	
8835	88.340	1212.71875	613.61932	1151.44031	
8836	88.350	1207.43457	618.51294	1151.56970	
8837	88.360	1204.16516	623.46240	1151.25696	
8838	88.370	1202.82788	628.03101	1151.60120	
8839	88.380	1199.81714	632.66187	1152.20386	
8840	88.390	1194.82825	636.79822	1152.42151	
8841	88.400	1192.42627	640.73199	1152.97852	
8842	88.410	1189.79541	645.51636	1153.16833	
8843	88.420	1186.95837	650.12140	1153.31152	
8844	88.430	1182.92261	654.60748	1153.61963	
8845	88.440	1179.38110	659.37415	1153.80200	
8846	88.450	1176.67639	664.23260	1154.12769	
8847	88.460	1173.13293	668.59875	1154.26038	
8848	88.470	1170.72876	673.55072	1154.27722	
8849	88.480	1168.29797	678.48700	1154.92493	
8850	88.490	1165.77979	683.67456	1155.07678	
8851	88.500	1163.22681	688.96912	1155.32715	
8852	88.510	1160.44434	693.95020	1155.23181	
8853	88.520	1157.92017	698.61926	1155.14417	
8854	88.530	1155.75586	703.56268	1155.32910	
8855	88.540	1152.59778	708.05853	1156.15173	
8856	88.550	1150.28430	712.03802	1156.75500	
8857	88.560	1147.69275	717.21930	1157.31885	
8858	88.570	1145.16785	721.97308	1157.80359	
8859	88.580	1141.95935	727.11194	1157.54065	
8860	88.590	1138.99915	732.24683	1157.76660	
8861	88.600	1136.12024	736.54938	1158.07068	
8862	88.610	1132.09888	740.93439	1157.94421	
8863	88.620	1130.05640	745.70813	1158.15393	
8864	88.630	1126.90295	749.26971	1158.65808	
8865	88.640	1126.27368	754.58667	1158.33936	
8866	88.650	1124.16309	759.06226	1158.63184	
8867	88.660	1120.44568	763.19897	1159.25220	
8868	88.670	1116.31384	766.90558	1159.27087	
8869	88.680	1114.04639	770.80560	1159.37329	
8870	88.690	1110.96875	774.26392	1159.75061	
8871	88.700	1108.19531	778.20874	1159.95935	
8872	88.710	1104.53650	781.59851	1160.40674	
8873	88.720	1101.85181	784.97949	1160.80884	
8874	88.730	1098.97778	788.70917	1161.22461	
8875	88.740	1095.59741	792.29401	1160.84729	
8876	88.750	1093.13196	795.70544	1161.20679	
8877	88.760	1090.95239	799.67334	1161.44812	
8878	88.770	1087.64429	803.01599	1161.20703	
8879	88.780	1084.70618	806.75055	1161.22363	
8880	88.790	1081.59094	810.41327	1160.76331	
8881	88.800	1077.91321	813.41827	1160.55420	
8882	88.810	1074.51270	817.20142	1160.32117	
8883	88.820	1071.19141	820.78693	1160.15625	
8884	88.830	1066.42273	823.91333	1159.32202	
8885	88.840	1063.46741	827.80304	1159.47888	
8886	88.850	1061.33350	831.45618	1158.86914	
8887	88.860	1058.16040	835.19806	1158.47485	
8888	88.870	1052.76184	837.81146	1158.53040	
8889	88.880	1049.70691	841.57098	1157.90393	
8890	88.890	1045.34607	844.45160	1158.18542	
8891	88.900	1041.29053	847.83832	1157.77808	
8892	88.910	1037.75220	850.68530	1157.24280	
8893	88.920	1033.82019	854.01715	1157.44385	
8894	88.930	1031.32153	857.54718	1157.05005	
8895	88.940	1027.95227	860.42273	1156.77502	
8896	88.950	1024.51135	863.57721	1156.44250	
8897	88.960	1020.22137	866.31598	1156.24951	
8898	88.970	1016.49951	869.18353	1156.29980	
8899	88.980	1013.16638	872.57898	1155.99500	
8900	88.990	1007.84186	874.95276	1155.61633	
8901	89.000	1004.55573	878.23322	1155.45935	
8902	89.010	999.04456	881.00934	1155.39941	
8903	89.020	996.92120	884.24268	1155.31689	
8904	89.030	993.03741	887.10675	1155.13220	
8905	89.040	988.50574	889.81049	1154.92554	
8906	89.050	984.50891	892.48651	1155.01575	
8907	89.060	979.91986	895.54590	1154.85120	
8908	89.070	976.92340	898.39636	1154.64917	
8909	89.080	973.18237	901.76776	1154.20410	
8910	89.090	969.76904	904.54944	1154.22498	
8911	89.100	964.65436	907.37769	1154.51953	
8912	89.110	961.03644	910.44501	1153.93909	
8913	89.120	957.38214	913.06195	1153.74939	
8914	89.130	951.22162	915.91046	1153.91748	
8915	89.140	949.99634	919.09271	1153.51611	
8916	89.150	944.46600	922.07239	1153.59778	
8917	89.160	939.20508	924.59961	1153.53918	
8918	89.170	935.19708	927.29791	1153.34497	
8919	89.180	929.71210	929.50171	1153.61414	
8920	89.190	925.41699	931.90167	1153.41272	
8921	89.200	921.84338	934.54498	1153.70325	
8922	89.210	918.72504	936.60815	1153.81958	
8923	89.220	914.57391	939.06836	1154.27979	
8924	89.230	910.27637	940.76935	1154.52185	
8925	89.240	906.08209	942.67731	1155.17859	
8926	89.250	902.49023	944.82709	1155.45020	
8927	89.260	896.87695	946.13855	1156.16797	
8928	89.270	895.22760	948.78461	1156.63098	
8929	89.280	888.96747	950.37811	1157.17725	
8930	89.290	885.97705	952.39551	1157.22046	
8931	89.300	880.92566	954.41583	1158.18213	
8932	89.310	876.56366	956.51361	1158.34448	
8933	89.320	872.40668	958.81384	1158.83948	
8934	89.330	869.14050	961.77045	1158.47156	
8935	89.340	865.12360	964.68372	1158.66736	
8936	89.350	860.81372	967.12122	1158.61340	
8937	89.360	856.54053	969.41931	1158.49268	
8938	89.370	852.43945	972.23828	1158.90527	
8939	89.380	846.93073	974.34613	1158.58008	
8940	89.390	842.94403	976.65826	1159.28857	
8941	89.400	838.56342	979.00946	1160.19275	
8942	89.410	835.26685	981.66333	1160.52075	
8943	89.420	831.68384	983.60443	1160.76965	
8944	89.430	826.67548	985.46820	1161.55969	
8945	89.440	822.59479	987.52551	1161.31287	
8946	89.450	819.52686	989.71198	1162.11890	
8947	89.460	816.15100	991.94507	1162.54114	
8948	89.470	812.81195	993.86816	1162.84387	
8949	89.480	808.50104	995.72510	1163.58130	
8950	89.490	804.95557	997.82562	1163.89185	
8951	89.500	800.89868	999.90729	1164.03271	
8952	89.510	797.56659	1002.10760	1164.62744	
8953	89.520	792.22998	1003.71033	1165.34814	
8954	89.530	787.34717	1005.97412	1165.14929	
8955	89.540	784.72174	1008.56903	1165.27441	
8956	89.550	780.72241	1011.00928	1165.42883	
8957	89.560	775.52814	1013.53552	1165.29895	
8958	89.570	770.72968	1016.07446	1165.58972	
8959	89.580	767.06793	1018.72955	1165.37195	
8960	89.590	763.34943	1021.35175	1165.59741	
8961	89.600	758.99670	1024.05688	1165.31860	
8962	89.610	754.27966	1026.78662	1165.45361	
8963	89.620	749.58630	1029.02637	1165.14343	
8964	89.630	745.90546	1032.07568	1165.71716	
8965	89.640	739.70636	1034.56116	1165.73376	
